<svg width="92" height="23" viewBox="0 0 92 23" fill="none">
<path fill-rule="evenodd" clip-rule="evenodd" d="M35.9407 5.61999C35.4966 5.44872 34.9276 5.36308 34.2338 5.36308C33.6203 5.36308 33.0636 5.49382 32.6035 5.75457C32.1436 6.01572 31.7157 6.38274 31.3122 6.85563V0H28.3262V17.617H31.3122V10.4281C31.3122 10.1344 31.3811 9.84922 31.478 9.57167C31.5748 9.29445 31.7323 9.04177 31.9101 8.81308C32.0875 8.58487 32.298 8.40136 32.5401 8.26255C32.7822 8.12422 33.0495 8.05457 33.34 8.05457C33.8563 8.05457 34.2136 8.16891 34.4072 8.3972C34.6009 8.62582 34.7017 9.00083 34.7017 9.52273V17.617H37.6876V9.52273C37.6876 8.82156 37.6392 8.20986 37.5345 7.68755C37.4293 7.16572 37.2519 6.73329 36.9939 6.39074C36.7355 6.04818 36.3845 5.79127 35.9407 5.61999ZM16.1404 17.617H13.1544V0.244681H16.1404V17.617ZM6.22211 4.09832L7.74745 11.3165H4.67263L6.22211 4.09832ZM12.3717 17.6782L8.0864 0.958333H4.40632L0 17.6782H3.07474L4.04316 13.7633H8.37692L9.32113 17.6782H12.3717ZM24.2912 9.65845C24.2912 9.09144 24.15 8.68242 23.8515 8.43121C23.5526 8.18042 23.1009 8.05465 22.4877 8.05465C21.9709 8.05465 21.5816 8.22478 21.3074 8.56505C21.0327 8.90524 20.9018 9.33466 20.9018 9.85305V13.1578C20.9018 13.6923 21.0469 14.1584 21.3457 14.5552C21.6442 14.952 22.0414 15.1505 22.5582 15.1505C23.7203 15.1505 24.2912 14.5999 24.2912 13.4981V9.65845ZM23.6297 5.36308C24.356 5.36308 24.9571 5.44072 25.4334 5.59552C25.9093 5.75073 26.2887 5.99542 26.5713 6.32957C26.8535 6.66413 27.0309 7.09648 27.1361 7.62646C27.2409 8.15668 27.2772 8.78869 27.2772 9.52273V13.5111C27.2772 14.8813 27.0068 15.9457 26.4339 16.7042C25.8609 17.4627 24.9047 17.842 23.5489 17.842C23 17.842 22.4833 17.7185 21.9832 17.4715C21.4827 17.2246 21.0632 16.846 20.9018 16.3356V23H17.8351V5.62766H20.1675L20.5549 7.27428C20.8454 6.68174 21.2608 6.21179 21.8017 5.87422C22.3424 5.53705 22.9517 5.36308 23.6297 5.36308ZM44.3053 12.0919L41.5614 12.7281V14.2696C41.5614 14.694 41.6782 14.9632 41.856 15.0771C42.0334 15.1914 42.3381 15.2484 42.7417 15.2484C43.1612 15.2484 43.5235 15.1099 43.8382 14.8324C44.153 14.5552 44.3053 14.1961 44.3053 13.7557V12.0919ZM43.2159 5.36308C44.6201 5.36308 45.6447 5.6854 46.3067 6.32957C46.9683 6.97414 47.2912 8.00563 47.2912 9.42478V17.6171H45.0559L44.7896 15.9434C44.4506 16.4491 44.0349 16.8804 43.5427 17.2474C43.0502 17.6144 42.5217 17.7955 41.9569 17.7955C40.7948 17.7955 39.9272 17.5213 39.3946 16.9746C38.8619 16.4282 38.5754 15.5665 38.5754 14.392V11.2844L44.386 10.061V9.42478C44.386 8.85402 44.2852 8.46253 44.0673 8.25031C43.8493 8.03858 43.4618 7.93223 42.8971 7.93223C42.6871 7.93223 42.4428 7.97317 42.1606 8.05457C41.8781 8.13637 41.5965 8.23808 41.3143 8.36042C41.0317 8.48276 40.7659 8.6135 40.5158 8.75191C40.2654 8.89072 40.0599 9.0253 39.8987 9.15563L38.8578 7.05138C39.132 6.83956 39.4469 6.63159 39.802 6.42744C40.1569 6.2237 40.5284 6.04435 40.9158 5.88914C41.3032 5.73434 41.6943 5.60776 42.09 5.50989C42.4854 5.41201 42.8606 5.36308 43.2159 5.36308ZM54.8085 4.00282C55.0265 4.23143 55.1193 4.59649 55.1193 5.1184V7.58967C55.1193 8.06305 55.0102 8.391 54.7602 8.55388C54.5097 8.71716 54.1748 8.80851 53.7232 8.80851H51.8912V3.67021H53.7232C54.2396 3.67021 54.5907 3.77453 54.8085 4.00282ZM56.9432 1.9842C56.1522 1.30749 55.0948 0.978723 53.7232 0.978723H48.8246V17.617H51.8912V11.5H53.7716C54.3848 11.5 54.9518 11.4087 55.4845 11.2454C56.0171 11.0825 56.4749 10.8318 56.8705 10.5137C57.2659 10.1956 57.5643 9.79188 57.7906 9.30252C58.0164 8.81308 58.1053 8.25031 58.1053 7.61422V5.09393C58.1053 3.69117 57.7339 2.66123 56.9432 1.9842ZM65.0456 9.52273C65.0456 8.90296 64.9244 8.50348 64.6743 8.3238C64.4239 8.14445 64.0022 8.05465 63.4052 8.05465C62.8563 8.05465 62.4097 8.17316 62.1191 8.40944C61.8285 8.64604 61.6561 9.0253 61.6561 9.5472V13.609C61.6561 14.2615 61.8092 14.6817 62.0596 14.8691C62.3097 15.0568 62.7796 15.1505 63.4416 15.1505C63.958 15.1505 64.3563 15.0365 64.6309 14.8079C64.9052 14.5796 65.0456 14.1881 65.0456 13.6335V9.52273ZM63.4072 5.36308C64.0367 5.36308 64.6337 5.45296 65.1988 5.63223C65.7636 5.8119 66.2599 6.08113 66.6878 6.43976C67.1153 6.7987 67.4384 7.23497 67.6805 7.7488C67.9226 8.26263 68.0316 8.8621 68.0316 9.5472V13.6335C68.0316 14.3186 67.9264 14.9223 67.6926 15.4441C67.4584 15.9663 67.1418 16.4026 66.7302 16.7531C66.3186 17.1041 65.8374 17.3732 65.2805 17.5606C64.7237 17.7479 64.1158 17.842 63.4542 17.842C62.7762 17.842 62.1475 17.7522 61.5664 17.5729C60.9853 17.3935 60.4811 17.1244 60.0536 16.7654C59.6258 16.4068 59.2749 15.9663 59.0412 15.4441C58.807 14.9223 58.6702 14.3186 58.6702 13.6335V9.5472C58.6702 8.8621 58.8112 8.26263 59.0534 7.7488C59.2955 7.23497 59.6363 6.7987 60.0561 6.43976C60.4756 6.08113 60.977 5.8119 61.55 5.63223C62.1228 5.45296 62.7452 5.36308 63.4072 5.36308ZM72.3895 5.62766H69.4035V17.617H72.3895V5.62766ZM72.3895 0.978723H69.4035V4.07801H72.3895V0.978723ZM79.8947 5.33861C81.2505 5.33861 82.1947 5.6854 82.7274 6.3785C83.26 7.07201 83.5263 8.1119 83.5263 9.49827V17.6171H80.4596V10.0316C80.4596 9.47836 80.3988 9.00654 80.2134 8.61586C80.0277 8.22552 79.6764 8.0301 79.1279 8.0301C78.8375 8.0301 78.5829 8.09934 78.3491 8.23767C78.115 8.37616 77.9175 8.55885 77.7479 8.78673C77.5784 9.01461 77.4191 9.27112 77.3223 9.5556C77.2254 9.84041 77.1508 10.1291 77.1508 10.4219V17.6171H74.1648V5.62766H76.8925L77.1346 6.87936C77.4736 6.35249 77.8568 5.961 78.2847 5.71403C78.7121 5.46707 79.2489 5.33861 79.8947 5.33861ZM90.511 14.918C90.2125 15.0243 89.8211 15.0771 89.3368 15.0771C89.1593 15.0771 89.0019 14.9956 88.8809 14.8324C88.7598 14.6695 88.6912 14.4982 88.6912 14.3186V7.74823H90.9509V5.62766H88.6912V2.12057H85.7053V5.62766H83.8491V7.74823H85.7053V14.71C85.7053 15.8845 85.9474 16.6881 86.4316 17.1202C86.9158 17.5526 87.7389 17.7686 88.9011 17.7686C89.3853 17.7686 89.8977 17.6585 90.4384 17.4382C90.9791 17.218 91.4996 16.9776 92 16.7164L91.4189 14.5632C91.1123 14.694 90.8096 14.8121 90.511 14.918Z" fill="white"/>
</svg>
